<svg xmlns="http://www.w3.org/2000/svg" viewBox="0 0 64 64" role="img" aria-label="WhatsApp MERN chat logo">
  <defs>
    <linearGradient id="bg" x1="12" y1="8" x2="54" y2="58" gradientUnits="userSpaceOnUse">
      <stop offset="0" stop-color="#24d366"/>
      <stop offset=".55" stop-color="#16b75a"/>
      <stop offset="1" stop-color="#087d4a"/>
    </linearGradient>
    <linearGradient id="shine" x1="19" y1="13" x2="44" y2="47" gradientUnits="userSpaceOnUse">
      <stop offset="0" stop-color="#ffffff" stop-opacity=".34"/>
      <stop offset=".6" stop-color="#ffffff" stop-opacity=".08"/>
      <stop offset="1" stop-color="#ffffff" stop-opacity="0"/>
    </linearGradient>
    <filter id="shadow" x="4" y="5" width="56" height="58" color-interpolation-filters="sRGB">
      <feDropShadow dx="0" dy="5" stdDeviation="4" flood-color="#064b30" flood-opacity=".28"/>
    </filter>
  </defs>
  <rect width="64" height="64" rx="18" fill="#f4fbf7"/>
  <g filter="url(#shadow)">
    <path fill="url(#bg)" d="M32 10.5c-12.58 0-22.78 9.36-22.78 20.9 0 4.52 1.56 8.68 4.22 12.1l-2.52 9.86a1.08 1.08 0 0 0 1.37 1.29l10.61-3.27A24.95 24.95 0 0 0 32 52.3c12.58 0 22.78-9.36 22.78-20.9S44.58 10.5 32 10.5Z"/>
    <path fill="url(#shine)" d="M13.36 30.78c0-9.58 8.46-17.35 18.88-17.35 6.44 0 12.13 2.97 15.54 7.51-3.5-3.21-8.43-5.18-13.87-5.18-10.42 0-18.88 7.77-18.88 17.35 0 3.24.97 6.26 2.66 8.85-2.7-3.05-4.33-6.94-4.33-11.18Z"/>
  </g>
  <path fill="#fff" d="M43.42 36.77c-.55-.28-3.24-1.59-3.74-1.77-.5-.19-.86-.28-1.22.28-.36.55-1.41 1.77-1.73 2.13-.32.37-.63.42-1.18.14-.55-.27-2.31-.85-4.4-2.71-1.63-1.45-2.73-3.24-3.05-3.79-.32-.55-.03-.85.24-1.12.25-.25.55-.64.82-.96.28-.32.37-.55.55-.92.19-.36.1-.69-.04-.96-.14-.28-1.22-2.94-1.68-4.02-.44-1.06-.89-.91-1.22-.93h-1.04c-.36 0-.95.14-1.45.69-.5.55-1.91 1.87-1.91 4.55 0 2.69 1.96 5.28 2.23 5.64.28.37 3.86 5.89 9.34 8.26 1.31.56 2.33.9 3.12 1.15 1.31.41 2.5.35 3.44.21 1.05-.16 3.24-1.32 3.69-2.6.46-1.27.46-2.36.32-2.59-.14-.23-.5-.36-1.05-.69Z"/>
</svg>
